# xmcd CD database file
#
# Track frame offsets:
#	150
#	13600
#	38220
#	54020
#	72417
#	88007
#	102900
#	120140
#	149990
#	165507
#	186865
#	203080
#	224740
#	242490
#	254910
#
# Disc length: 3632 seconds
#
# Revision: 3
# Processed by: cddbd v1.5.2PL0 Copyright (c) Steve Scherf et al.
# Submitted via: CDex 1.51
#
DISCID=da0e2e0f
DTITLE=Barney Kessel - Vol. 116 - Barney Kessel  Hits
DYEAR=1993
DGENRE=Jazz
TTITLE0=Barney's Blues
TTITLE1=Li'l Darling
TTITLE2=Doodlin'
TTITLE3=Easy Like
TTITLE4=Misty
TTITLE5=Salute To Charlie Christian
TTITLE6=Jeepers Creepers
TTITLE7=This Here
TTITLE8=Sugar Blues
TTITLE9=Sweet Sue
TTITLE10=My Old Flame
TTITLE11=The Blessing
TTITLE12=Little Susie
TTITLE13=North Of The Border
TTITLE14=Seven Come Eleven
EXTD=YEAR: 1993
EXTT0=
EXTT1=
EXTT2=
EXTT3=
EXTT4=
EXTT5=
EXTT6=
EXTT7=
EXTT8=
EXTT9=
EXTT10=
EXTT11=
EXTT12=
EXTT13=
EXTT14=
PLAYORDER=
